<svg width="104" height="104" viewBox="0 0 104 104" fill="none" xmlns="http://www.w3.org/2000/svg">
<path d="M8.99657 95.004C9.66022 95.6676 10.4906 96 11.321 96C12.1514 96 12.9819 95.6676 13.6455 95.004L52.0001 56.6492L90.3547 95.004C91.0184 95.6676 91.8488 96 92.6792 96C93.5096 96 94.34 95.6676 95.0037 95.004C96.3321 93.6755 96.3321 91.6835 95.0037 90.3549L56.649 52.0001L95.0037 13.6454C96.3321 12.3169 96.3321 10.3249 95.0037 8.99634C93.6752 7.66789 91.6832 7.66789 90.3546 8.99634L52 47.3511L13.6454 8.99634C12.3169 7.66789 10.3249 7.66789 8.99634 8.99634C7.66789 10.3248 7.66789 12.3168 8.99634 13.6454L47.351 52.0001L8.99634 90.3549C7.66789 91.6833 7.66789 93.6753 8.99634 95.004H8.99657Z" fill="#111111"/>
</svg>
