<svg width="104" height="104" viewBox="0 0 104 104" fill="none" xmlns="http://www.w3.org/2000/svg">
<path d="M95.8144 50.9114C95.2885 49.4137 93.7668 48.5079 92.1996 48.7575L83.6665 50.1203C83.4565 46.5013 82.6401 42.9881 81.2282 39.6523C79.8737 36.4521 78.0253 33.5275 75.7207 30.9371L82.7177 25.8675C84.0027 24.9365 84.4379 23.2198 83.751 21.7882C83.5894 21.452 83.3725 21.1478 83.1127 20.888C82.8528 20.6281 82.5486 20.4105 82.2124 20.2496C81.7568 20.0306 81.2725 19.9256 80.7937 19.9256C79.7679 19.9256 78.768 20.4064 78.1331 21.2829L73.0635 28.2799C70.4731 25.9746 67.5485 24.1263 64.3483 22.7724C61.0125 21.3612 57.4992 20.5441 53.8803 20.3341L55.2431 11.801C55.4934 10.2337 54.5869 8.7121 53.0892 8.1862C52.7365 8.06275 52.3676 8 51.9999 8C51.6323 8 51.2633 8.06275 50.9114 8.18552C49.5807 8.65272 48.7166 9.90768 48.7166 11.2812C48.7166 11.4531 48.7303 11.6264 48.7575 11.8016L50.1203 20.3347C46.5013 20.5448 42.9881 21.3612 39.6523 22.773C36.4521 24.1276 33.5275 25.9759 30.9371 28.2805L25.8675 21.2835C24.9365 19.9985 23.2198 19.5634 21.7882 20.2502C21.4506 20.4118 21.1478 20.6287 20.888 20.8886C20.6281 21.1484 20.4105 21.4526 20.2496 21.7889C20.0306 22.2445 19.9256 22.7287 19.9256 23.2075C19.9256 24.2333 20.4064 25.2333 21.2829 25.8681L28.2799 30.9377C25.9746 33.5281 24.1263 36.4527 22.7724 39.6529C21.3612 42.9887 20.5441 46.502 20.3341 50.1209L11.801 48.7582C10.2337 48.5078 8.7121 49.4143 8.1862 50.9121C8.06275 51.2633 8 51.6323 8 51.9999C8 52.3676 8.06275 52.7365 8.18552 53.0885C8.65272 54.4191 9.90768 55.2832 11.28 55.2832C11.4519 55.2832 11.6251 55.2696 11.8004 55.2423L20.3335 53.8796C20.5435 57.4986 21.3599 61.0118 22.7718 64.3476C24.1263 67.5477 25.9747 70.4723 28.2793 73.0627L21.2823 78.1324C19.9973 79.0633 19.5621 80.78 20.249 82.2116C20.4106 82.5492 20.6275 82.8521 20.8873 83.1119C21.1472 83.3718 21.4514 83.5893 21.7876 83.7503C22.2432 83.9692 22.7275 84.0743 23.2063 84.0743C24.2321 84.0743 25.232 83.5934 25.8669 82.717L30.9365 75.72C33.5269 78.0252 36.4515 79.8736 39.6517 81.2275C42.9875 82.6386 46.5008 83.4558 50.1197 83.6658L48.7569 92.1989C48.5066 93.7662 49.4131 95.2878 50.9108 95.8137C51.2634 95.9371 51.6324 95.9999 52.0001 95.9999C52.3677 95.9999 52.7367 95.9371 53.0886 95.8143C54.4193 95.3471 55.2834 94.0922 55.2834 92.7198C55.2834 92.548 55.2697 92.3747 55.2425 92.1994L53.8797 83.6664C57.4987 83.4563 61.0119 82.6399 64.3477 81.2281C67.5479 79.8735 70.4725 78.0251 73.0629 75.7205L78.1325 82.7176C79.0635 84.0026 80.7802 84.4377 82.2118 83.7509C82.5494 83.5893 82.8522 83.3724 83.112 83.1125C83.3719 82.8527 83.5895 82.5485 83.7504 82.2122C83.9694 81.7566 84.0744 81.2724 84.0744 80.7936C84.0744 79.7678 83.5936 78.7678 82.7171 78.133L75.7201 73.0634C78.0254 70.4729 79.8737 67.5483 81.2276 64.3482C82.6387 61.0124 83.4559 57.499 83.6659 53.8802L92.199 55.2429C93.7663 55.4932 95.2879 54.5868 95.8138 53.089C95.9373 52.7364 96 52.3674 96 51.9998C96 51.6322 95.9372 51.2632 95.8145 50.9112L95.8144 50.9114ZM51.9994 81.6748C35.6364 81.6748 22.3256 68.3634 22.3256 52.001C22.3256 35.6385 35.637 22.3271 51.9994 22.3271C68.3618 22.3271 81.6733 35.6385 81.6733 52.001C81.6733 68.3634 68.3618 81.6748 51.9994 81.6748ZM62.9919 25.9763C59.5114 24.5045 55.8134 23.7576 51.9994 23.7576C48.1854 23.7576 44.4874 24.5045 41.0069 25.9763C37.6444 27.3991 34.623 29.4356 32.0291 32.0295C29.434 34.6232 27.3974 37.644 25.976 41.0072C24.5041 44.4878 23.7573 48.1857 23.7573 51.9998C23.7573 55.8138 24.5041 59.5117 25.976 62.9923C27.3987 66.3548 29.4352 69.3761 32.0291 71.97C34.6229 74.5652 37.6437 76.6017 41.0069 78.0232C44.4874 79.495 48.1861 80.2419 51.9994 80.2419C55.8127 80.2419 59.5114 79.495 62.9919 78.0232C66.3544 76.6004 69.3758 74.5639 71.9697 71.97C74.5648 69.3763 76.6014 66.3555 78.0228 62.9923C79.4947 59.5117 80.2415 55.8131 80.2415 51.9998C80.2415 48.1864 79.4947 44.4878 78.0228 41.0072C76.6001 37.6447 74.5636 34.6234 71.9697 32.0295C69.3758 29.4356 66.3544 27.399 62.9919 25.9763ZM27.0934 51.9992C27.0934 51.3772 27.5968 50.8739 28.2188 50.8739C28.8408 50.8739 29.3442 51.3772 29.3442 51.9992C29.3442 52.6213 28.8408 53.1246 28.2188 53.1246C27.5975 53.1246 27.0934 52.6213 27.0934 51.9992ZM30.46 62.1399C29.8857 62.3772 29.2268 62.1044 28.9895 61.5308C28.7521 60.9565 29.025 60.2976 29.5986 60.0603C30.1728 59.8229 30.8317 60.0958 31.069 60.6694C31.3071 61.243 31.0343 61.9011 30.46 62.1399ZM31.069 43.3298C30.8317 43.9041 30.1722 44.1762 29.5986 43.9389C29.0243 43.7015 28.7521 43.042 28.9895 42.4684C29.2268 41.8941 29.8864 41.622 30.46 41.8593C31.0343 42.098 31.3071 42.7562 31.069 43.3298ZM68.0186 34.3889C68.4585 33.949 69.1706 33.949 69.6105 34.3889C70.0504 34.8288 70.0504 35.5409 69.6105 35.9808C69.1706 36.4207 68.4585 36.4207 68.0186 35.9808C67.5794 35.5409 67.5794 34.8281 68.0186 34.3889ZM60.0606 29.5988C60.2979 29.0245 60.9574 28.7524 61.531 28.9898C62.1053 29.2271 62.3775 29.8866 62.1401 30.4603C61.9028 31.0345 61.2432 31.3067 60.6696 31.0693C60.0946 30.832 59.8218 30.1731 60.0606 29.5988ZM54.0463 32.6652C57.8754 33.0669 61.3757 34.5859 64.2184 36.8871L60.0333 41.0722L60.757 41.7958L56.2875 46.266C55.3496 45.5629 54.2352 45.0847 53.0239 44.9108V38.5923H54.0477L54.047 32.6654L54.0463 32.6652ZM57.1162 51.9991C57.1162 54.8199 54.8205 57.1158 51.9995 57.1158C49.1784 57.1158 46.8827 54.8201 46.8827 51.9991C46.8827 49.178 49.1779 46.8823 51.9995 46.8823C54.8204 46.8823 57.1162 49.178 57.1162 51.9991ZM51.9995 27.0936C52.6215 27.0936 53.1248 27.597 53.1248 28.219C53.1248 28.841 52.6215 29.3444 51.9995 29.3444C51.3774 29.3444 50.8741 28.841 50.8741 28.219C50.8741 27.5976 51.3774 27.0936 51.9995 27.0936ZM42.4679 28.9896C43.0421 28.7523 43.701 29.0251 43.9384 29.5987C44.1757 30.173 43.9029 30.8318 43.3293 31.0692C42.755 31.3066 42.0961 31.0337 41.8588 30.4601C41.6214 29.8865 41.8943 29.227 42.4679 28.9896ZM49.9526 32.6652V38.5921H50.9763V44.9107C49.765 45.0846 48.6499 45.5627 47.7128 46.2659L43.2433 41.7957L43.967 41.0721L39.7819 36.887C42.6232 34.5857 46.1235 33.0668 49.9525 32.6651L49.9526 32.6652ZM34.3883 34.3887C34.8282 33.9488 35.5402 33.9488 35.9802 34.3887C36.4201 34.8287 36.4201 35.5407 35.9802 35.9806C35.5402 36.4206 34.8282 36.4206 34.3883 35.9806C33.9483 35.5407 33.9483 34.828 34.3883 34.3887V34.3887ZM36.8867 39.7817L41.0717 43.9668L41.7954 43.2431L46.2656 47.7126C45.5624 48.6505 45.0843 49.7649 44.9104 50.9762H38.5918V49.9524H32.6649C33.0666 46.1241 34.5855 42.6238 36.8868 39.7818L36.8867 39.7817ZM35.9802 69.611C35.5403 70.0509 34.8282 70.0509 34.3883 69.611C33.9484 69.1711 33.9484 68.459 34.3883 68.0191C34.8282 67.5792 35.5403 67.5792 35.9802 68.0191C36.4195 68.459 36.4195 69.1717 35.9802 69.611ZM32.6649 54.0467H38.5918V53.0229H44.9103C45.0842 54.2342 45.5624 55.3493 46.2655 56.2864L41.7953 60.7559L41.0717 60.0323L36.8866 64.2173C34.5854 61.376 33.0665 57.8757 32.6647 54.0467L32.6649 54.0467ZM43.9383 74.4002C43.7009 74.9745 43.0414 75.2466 42.4678 75.0092C41.8935 74.7719 41.6214 74.1124 41.8587 73.5387C42.0961 72.9645 42.7556 72.6923 43.3292 72.9297C43.9042 73.167 44.177 73.8259 43.9383 74.4002ZM49.9525 71.3338C46.1235 70.9321 42.6232 69.4132 39.7805 67.1119L43.9655 62.9268L43.2419 62.2032L47.7114 57.733C48.6492 58.4361 49.7637 58.9143 50.9749 59.0882V65.4067H49.9512L49.9518 71.3336L49.9525 71.3338ZM51.9994 76.9054C51.3774 76.9054 50.874 76.402 50.874 75.78C50.874 75.158 51.3774 74.6546 51.9994 74.6546C52.6214 74.6546 53.1248 75.158 53.1248 75.78C53.1248 76.4014 52.6214 76.9054 51.9994 76.9054ZM61.531 75.0094C60.9567 75.2467 60.2979 74.9739 60.0605 74.4003C59.8231 73.826 60.096 73.1672 60.6696 72.9298C61.2439 72.6924 61.9027 72.9653 62.1401 73.5389C62.3774 74.1125 62.1046 74.772 61.531 75.0094ZM54.0463 71.3338V65.4069H53.0225V59.0883C54.2338 58.9144 55.3489 58.4363 56.286 57.7331L60.7555 62.2033L60.0319 62.9269L64.217 67.112C61.3756 69.4133 57.8754 70.9322 54.0463 71.3339L54.0463 71.3338ZM69.6106 69.6103C69.1707 70.0502 68.4586 70.0502 68.0187 69.6103C67.5788 69.1703 67.5788 68.4583 68.0187 68.0184C68.4586 67.5784 69.1707 67.5784 69.6106 68.0184C70.0505 68.4583 70.0505 69.171 69.6106 69.6103ZM67.1122 64.2173L62.9271 60.0322L62.2035 60.7559L57.7333 56.2864C58.4365 55.3485 58.9146 54.2341 59.0885 53.0228H65.407V54.0466H71.334C70.9322 57.875 69.4133 61.3752 67.1121 64.2172L67.1122 64.2173ZM65.4071 49.9524V50.9761H59.0885C58.9146 49.7648 58.4365 48.6497 57.7333 47.7126L62.2035 43.2431L62.9272 43.9667L67.1122 39.7817C69.4142 42.623 70.9324 46.1247 71.3341 49.9537H65.4072L65.4071 49.9524ZM76.9056 51.9992C76.9056 52.6213 76.4022 53.1246 75.7802 53.1246C75.1582 53.1246 74.6549 52.6213 74.6549 51.9992C74.6549 51.3772 75.1582 50.8739 75.7802 50.8739C76.4016 50.8739 76.9056 51.3772 76.9056 51.9992ZM73.5391 41.8586C74.1134 41.6213 74.7722 41.8941 75.0096 42.4677C75.2469 43.042 74.9741 43.7008 74.4005 43.9382C73.8262 44.1755 73.1674 43.9027 72.93 43.3291C72.692 42.7555 72.9648 42.0973 73.5391 41.8586ZM72.93 60.6686C73.1674 60.0944 73.8269 59.8222 74.4005 60.0596C74.9748 60.2969 75.2469 60.9565 75.0096 61.5301C74.7722 62.1044 74.1127 62.3765 73.5391 62.1391C72.9648 61.9004 72.692 61.2423 72.93 60.6686Z" fill="#D4AF37"/>
</svg>
